ModelForces
version=1
nRows=4
nColumns=154
inDegrees=no

This file contains the forces exerted on a model during a simulation.

A force is a generalized force, meaning that it can be either a force (N) or a torque (Nm).

Units are S.I. units (second, meters, Newtons, ...)
Angles are in degrees.

endheader
time	glut_med1_r	glut_med2_r	glut_med3_r	glut_min1_r	glut_min2_r	glut_min3_r	semimem_r	semiten_r	bifemlh_r	bifemsh_r	sar_r	add_long_r	add_brev_r	add_mag1_r	add_mag2_r	add_mag3_r	tfl_r	pect_r	grac_r	glut_max1_r	glut_max2_r	glut_max3_r	iliacus_r	psoas_r	quad_fem_r	gem_r	peri_r	rect_fem_r	vas_med_r	vas_int_r	vas_lat_r	med_gas_r	lat_gas_r	soleus_r	tib_post_r	flex_dig_r	flex_hal_r	tib_ant_r	per_brev_r	per_long_r	per_tert_r	ext_dig_r	ext_hal_r	glut_med1_l	glut_med2_l	glut_med3_l	glut_min1_l	glut_min2_l	glut_min3_l	semimem_l	semiten_l	bifemlh_l	bifemsh_l	sar_l	add_long_l	add_brev_l	add_mag1_l	add_mag2_l	add_mag3_l	tfl_l	pect_l	grac_l	glut_max1_l	glut_max2_l	glut_max3_l	iliacus_l	psoas_l	quad_fem_l	gem_l	peri_l	rect_fem_l	vas_med_l	vas_int_l	vas_lat_l	med_gas_l	lat_gas_l	soleus_l	tib_post_l	flex_dig_l	flex_hal_l	tib_ant_l	per_brev_l	per_long_l	per_tert_l	ext_dig_l	ext_hal_l	ercspn_r	ercspn_l	intobl_r	intobl_l	extobl_r	extobl_l	contactForce_femur_lat_meniscii_l.femur_lat_l.force.X	contactForce_femur_lat_meniscii_l.femur_lat_l.force.Y	contactForce_femur_lat_meniscii_l.femur_lat_l.force.Z	contactForce_femur_lat_meniscii_l.femur_lat_l.torque.X	contactForce_femur_lat_meniscii_l.femur_lat_l.torque.Y	contactForce_femur_lat_meniscii_l.femur_lat_l.torque.Z	contactForce_femur_lat_meniscii_l.meniscus_lat_l.force.X	contactForce_femur_lat_meniscii_l.meniscus_lat_l.force.Y	contactForce_femur_lat_meniscii_l.meniscus_lat_l.force.Z	contactForce_femur_lat_meniscii_l.meniscus_lat_l.torque.X	contactForce_femur_lat_meniscii_l.meniscus_lat_l.torque.Y	contactForce_femur_lat_meniscii_l.meniscus_lat_l.torque.Z	contactForce_femur_med_meniscii_l.femur_med_l.force.X	contactForce_femur_med_meniscii_l.femur_med_l.force.Y	contactForce_femur_med_meniscii_l.femur_med_l.force.Z	contactForce_femur_med_meniscii_l.femur_med_l.torque.X	contactForce_femur_med_meniscii_l.femur_med_l.torque.Y	contactForce_femur_med_meniscii_l.femur_med_l.torque.Z	contactForce_femur_med_meniscii_l.meniscus_med_l.force.X	contactForce_femur_med_meniscii_l.meniscus_med_l.force.Y	contactForce_femur_med_meniscii_l.meniscus_med_l.force.Z	contactForce_femur_med_meniscii_l.meniscus_med_l.torque.X	contactForce_femur_med_meniscii_l.meniscus_med_l.torque.Y	contactForce_femur_med_meniscii_l.meniscus_med_l.torque.Z	contactForce_femur_lat_meniscii_r.femur_lat_r.force.X	contactForce_femur_lat_meniscii_r.femur_lat_r.force.Y	contactForce_femur_lat_meniscii_r.femur_lat_r.force.Z	contactForce_femur_lat_meniscii_r.femur_lat_r.torque.X	contactForce_femur_lat_meniscii_r.femur_lat_r.torque.Y	contactForce_femur_lat_meniscii_r.femur_lat_r.torque.Z	contactForce_femur_lat_meniscii_r.meniscus_lat_r.force.X	contactForce_femur_lat_meniscii_r.meniscus_lat_r.force.Y	contactForce_femur_lat_meniscii_r.meniscus_lat_r.force.Z	contactForce_femur_lat_meniscii_r.meniscus_lat_r.torque.X	contactForce_femur_lat_meniscii_r.meniscus_lat_r.torque.Y	contactForce_femur_lat_meniscii_r.meniscus_lat_r.torque.Z	contactForce_femur_med_meniscii_r.femur_med_r.force.X	contactForce_femur_med_meniscii_r.femur_med_r.force.Y	contactForce_femur_med_meniscii_r.femur_med_r.force.Z	contactForce_femur_med_meniscii_r.femur_med_r.torque.X	contactForce_femur_med_meniscii_r.femur_med_r.torque.Y	contactForce_femur_med_meniscii_r.femur_med_r.torque.Z	contactForce_femur_med_meniscii_r.meniscus_med_r.force.X	contactForce_femur_med_meniscii_r.meniscus_med_r.force.Y	contactForce_femur_med_meniscii_r.meniscus_med_r.force.Z	contactForce_femur_med_meniscii_r.meniscus_med_r.torque.X	contactForce_femur_med_meniscii_r.meniscus_med_r.torque.Y	contactForce_femur_med_meniscii_r.meniscus_med_r.torque.Z	aACL_R	pACL_R	aPCL_R	pPCL_R	aMCL_R	aLCL_R	aPCL_L	pPCL_L	aMCL_L	aLCL_L	ground_prescribedForce_fx	ground_prescribedForce_fy	ground_prescribedForce_fz
      0.26290277	      8.62599359	      6.40593313	      6.86751104	      2.99066369	      3.53844077	      3.64770139	      6.00896091	      4.23232621	      7.78093347	      8.90244293	      1.62697700	      6.35576933	      4.65269459	      3.29744360	      2.78002727	      4.57679225	      6.27768342	      2.51993798	      1.60510086	      4.13364543	      6.28403967	      4.70135309	     23.99268897	     14.48514610	      4.08964523	      3.07264502	      4.89336304	     11.52990373	      7.50543915	      8.32375125	     10.82666014	      0.00000000	      1.26400265	      4.96556178	      5.76524279	      2.01589332	      1.21590202	     15.81054482	      4.07867110	      8.41081719	      9.53576701	      8.19582804	      2.83541016	     10.97959641	      5.36122289	      4.39125915	      4.75307993	      4.58865183	      2.75781342	      8.25049046	      4.44099615	      8.74223246	     10.49034291	      1.69332764	      7.59500166	      5.00942144	      3.16260540	      2.66704897	      4.18943179	      5.09204092	      2.89711636	      1.70769315	      3.33721030	      5.02409800	      3.56158113	     24.32135918	     15.44096627	      2.32841003	      0.77650055	      1.76773789	      9.48847854	      4.67373896	      5.53873975	      6.37196620	      1.47258727	      0.85198491	      2.75353039	      4.18071183	      4.33289242	      2.28453701	     16.30049063	      3.57992880	      5.95566952	      9.90897147	      8.14994498	      2.01461977	     28.13396002	     28.13396002	     10.23181731	     10.23181731	     27.91155463	     27.91155463	      0.46865187	      0.86823823	     -0.19939368	      0.10475120	     -0.00892306	      0.20730398	     -0.46865187	     -0.86823823	      0.19939368	     -0.02784225	      0.01268134	     -0.01017331	      1.89698728	     22.09631313	     -3.61617673	      1.07179932	      0.16763504	      1.56256813	     -1.89698728	    -22.09631313	      3.61617673	      0.32593520	     -0.09643495	     -0.39427787	      0.00000000	      0.00000000	      0.00000000	      0.00000000	      0.00000000	      0.00000000	      0.00000000	      0.00000000	      0.00000000	      0.00000000	      0.00000000	      0.00000000	     50.55258585	     55.95363106	     -4.55728081	      3.24491614	     -1.23450109	     20.86110069	    -50.55258585	    -55.95363106	      4.55728081	     -1.32836626	      1.11295461	     -1.09370224	      0.00000000	      0.00000000	     54.92847011	      0.00000000	      0.00000000	      0.00000000	      4.18761459	      0.00000000	      0.00000000	      0.00000000	      0.00000000	     52.58055303	      0.00000000
      0.26324784	      8.62115179	      6.40261893	      6.86391372	      2.98918211	      3.53683214	      3.64565846	      6.01466724	      4.23288781	      7.77646793	      8.89852843	      1.62673707	      6.35244223	      4.65041087	      3.29574871	      2.77856397	      4.57414346	      6.27990094	      2.51868131	      1.60503131	      4.13150544	      6.28077710	      4.69886874	     23.98665199	     14.47830855	      4.08757467	      3.07166123	      4.89002101	     11.52704694	      7.50579074	      8.31971601	     10.81490111	      0.00000000	      1.26516804	      4.97036123	      5.77317497	      2.01429306	      1.21134512	     15.80037325	      4.06815249	      8.38837331	      9.54595825	      8.20580669	      2.83586719	     10.97087588	      5.35862254	      4.38941398	      4.75348743	      4.58816250	      2.75700158	      8.29557293	      4.45797764	      8.77176826	     10.52009257	      1.69713769	      7.59071870	      5.00389780	      3.15888607	      2.66406350	      4.18397037	      5.10376164	      2.89554430	      1.71265844	      3.33475462	      5.01987864	      3.55712422	     24.32553401	     15.43870277	      2.32674300	      0.77653546	      1.76788244	      9.51871163	      4.71089801	      5.58326378	      6.42348907	      1.49034420	      0.86112050	      2.75890434	      4.15763215	      4.33299707	      2.27297920	     16.28835028	      3.58869417	      5.96401659	     10.08857486	      8.13417630	      2.01842211	     28.11999051	     28.11999051	     10.22629181	     10.22629181	     27.90658573	     27.90658573	      0.41525528	      0.75762510	     -0.17005876	      0.08979924	     -0.00802515	      0.18348536	     -0.41525528	     -0.75762510	      0.17005876	     -0.02419981	      0.01121819	     -0.00907717	      1.87826793	     22.35349583	     -3.59350199	      1.05776701	      0.16667669	      1.56412554	     -1.87826793	    -22.35349583	      3.59350199	      0.33130860	     -0.09605465	     -0.39877051	      0.00000000	      0.00000000	      0.00000000	      0.00000000	      0.00000000	      0.00000000	      0.00000000	      0.00000000	      0.00000000	      0.00000000	      0.00000000	      0.00000000	     50.64234408	     55.98792652	     -4.57360144	      3.25267548	     -1.23675460	     20.89826038	    -50.64234408	    -55.98792652	      4.57360144	     -1.32959044	      1.11486404	     -1.09654922	      0.00000000	      0.00000000	     55.07109699	      0.00000000	      0.00000000	      0.00000000	      4.17152390	      0.00000000	      0.00000000	      0.00000000	      0.00000000	     52.64956798	      0.00000000
      0.26476752	      8.60008811	      6.38820003	      6.84826332	      2.98273592	      3.52983347	      3.63677090	      6.04009735	      4.23603591	      7.75784462	      8.88323183	      1.62587652	      6.33796746	      4.64047456	      3.28837486	      2.77219790	      4.56262037	      6.28949775	      2.51321370	      1.60494421	      4.12219525	      6.26658307	      4.68806062	     23.96038872	     14.44856454	      4.07856616	      3.06738169	      4.87545342	     11.51627024	      7.51246666	      8.30739133	     10.77112182	      0.17643640	      1.27098883	      4.99529348	      5.80779572	      2.00596709	      1.19109542	     15.75533837	      4.02489292	      8.29242662	      9.58883085	      8.25056362	      2.83764946	     10.93690918	      5.34859838	      4.38202620	      4.75649329	      4.58839748	      2.75443051	      8.51260578	      4.53717856	      8.92075820	     10.63898859	      1.72053249	      7.57040774	      4.97732487	      3.14108008	      2.65034066	      4.16013705	      5.15658833	      2.88808023	      1.73447663	      3.32423789	      5.00151229	      3.53700779	     24.34407747	     15.42822622	      2.31832855	      0.77628534	      1.76831008	      9.67022548	      4.88036975	      5.78828331	      6.66135674	      1.57042479	      0.90281819	      2.78559949	      4.06130005	      4.33048731	      2.22095225	     16.23665574	      3.62777317	      6.00283788	     21.61361790	      8.06657133	      2.03690120	     28.05921092	     28.05921092	     10.20225333	     10.20225333	     27.88496921	     27.88496921	      0.21236917	      0.36248176	     -0.07412933	      0.04000289	     -0.00433084	      0.09343264	     -0.21236917	     -0.36248176	      0.07412933	     -0.01139931	      0.00569957	     -0.00479488	      1.76768324	     23.15597242	     -3.43717814	      0.97939387	      0.15943397	      1.54849846	     -1.76768324	    -23.15597242	      3.43717814	      0.34965435	     -0.09243590	     -0.41363099	      0.00000000	      0.00000000	      0.00000000	      0.00000000	      0.00000000	      0.00000000	      0.00000000	      0.00000000	      0.00000000	      0.00000000	      0.00000000	      0.00000000	     51.19696622	     56.11017217	     -4.49260896	      3.22212766	     -1.25125901	     21.12904728	    -51.19696622	    -56.11017217	      4.49260896	     -1.32906996	      1.12642775	     -1.11517363	      0.00000000	      0.00000000	     55.67365205	      0.00000000	      0.00000000	      0.00000000	      4.07467680	      0.00000000	      0.00000000	      0.00000000	      0.00000000	     52.95350350	      0.00000000
      0.26531294	      8.59263012	      6.38309442	      6.84272174	      2.98045323	      3.52735525	      3.63362409	      6.04912937	      4.23728196	      7.75138299	      8.87748911	      1.62549316	      6.33284215	      4.63695591	      3.28576384	      2.76994381	      4.55854046	      6.29279483	      2.51127757	      1.60487229	      4.11889865	      6.26155719	      4.68423370	     23.95108969	     14.43803387	      4.07537622	      3.06586657	      4.87028442	     11.51281562	      7.51601059	      8.30423187	     10.75759321	      0.68644525	      1.27308203	      5.00451991	      5.82007922	      2.00247586	      1.18375591	     15.73953504	      4.01042592	      8.25899683	      9.60363133	      8.26693100	      2.83824307	     10.92645925	      5.34557733	      4.37972202	      4.75806629	      4.58943054	      2.75394141	      8.59679298	      4.56692801	      8.98029728	     10.67517830	      1.73018980	      7.56251590	      4.96685904	      3.13409771	      2.64515555	      4.15162412	      5.17563440	      2.88518673	      1.74314272	      3.32058128	      4.99499585	      3.52956492	     24.35086182	     15.42432514	      2.31493423	      0.77606435	      1.76842132	      9.72986720	      4.94054877	      5.86160992	      6.74615565	      1.59814018	      0.91732777	      2.79192113	      4.02689789	      4.32796035	      2.20146764	     16.21865513	      3.64294116	      6.01835551	     11.69896880	      8.04404902	      2.04438011	     28.03768807	     28.03768807	     10.19374188	     10.19374188	     27.87731551	     27.87731551	      0.15714930	      0.26400937	     -0.05156395	      0.02813838	     -0.00325954	      0.06906170	     -0.15714930	     -0.26400937	      0.05156395	     -0.00823859	      0.00420554	     -0.00357042	      1.69902287	     23.32225380	     -3.36818134	      0.94833174	      0.15599758	      1.52648012	     -1.69902287	    -23.32225380	      3.36818134	      0.35414049	     -0.09052768	     -0.41613734	      0.00000000	      0.00000000	      0.00000000	      0.00000000	      0.00000000	      0.00000000	      0.00000000	      0.00000000	      0.00000000	      0.00000000	      0.00000000	      0.00000000	     51.42514542	     56.10412787	     -4.46073024	      3.20902358	     -1.25641130	     21.22429674	    -51.42514542	    -56.10412787	      4.46073024	     -1.32796927	      1.13041764	     -1.12338891	      0.00000000	      0.00000000	     55.87759008	      0.00000000	      0.00000000	      0.00000000	      4.03436343	      0.00000000	      0.00000000	      0.00000000	      0.00000000	     53.06258798	      0.00000000
